<svg width="70" height="70" viewBox="0 0 70 70" fill="none" xmlns="http://www.w3.org/2000/svg">
<circle cx="35" cy="35" r="35" fill="#ECF6FF"/>
<path d="M10.6 4.12C7.61333 4.2 5.12 5.24 3.12 7.24C1.12 9.24 0.08 11.7333 0 14.72C0 16.1333 0.266667 17.48 0.8 18.76C1.33333 20.04 2.10667 21.1867 3.12 22.2L3.2 22.24C3.28 22.24 3.62667 22.68 4.24 23.56C4.88 24.4133 5.24 25.7733 5.32 27.64V28.84H15.88V27.64C15.96 25.8 16.2933 24.4533 16.88 23.6C17.4933 22.72 17.8667 22.28 18 22.28L18.08 22.2C19.0933 21.1867 19.8667 20.04 20.4 18.76C20.9333 17.48 21.2 16.1333 21.2 14.72C21.12 11.7333 20.08 9.24 18.08 7.24C16.08 5.24 13.5867 4.2 10.6 4.12ZM17.28 21.36C17.0133 21.4667 16.5333 22.0267 15.84 23.04C15.1733 24.0533 14.8 25.5867 14.72 27.64H11.2V18.48L13.96 15.72C14.2 15.4267 14.1867 15.16 13.92 14.92C13.68 14.6533 13.4133 14.64 13.12 14.88L10.6 17.4L8.08 14.88C7.81333 14.64 7.54667 14.6533 7.28 14.92C7.01333 15.16 7 15.4267 7.24 15.72L10 18.48V27.64H6.48C6.4 25.5867 6.01333 24.0533 5.32 23.04C4.65333 22.0267 4.18667 21.4667 3.92 21.36C3.04 20.4533 2.36 19.44 1.88 18.32C1.42667 17.1733 1.2 15.9733 1.2 14.72C1.28 12.0533 2.2 9.84 3.96 8.08C5.72 6.29333 7.93333 5.36 10.6 5.28C13.2667 5.36 15.48 6.29333 17.24 8.08C19.0267 9.84 19.9467 12.0533 20 14.72C20 15.9733 19.76 17.1733 19.28 18.32C18.8267 19.44 18.16 20.4533 17.28 21.36ZM15.32 30H5.88C5.72 30 5.58667 30.0667 5.48 30.2C5.37333 30.3067 5.32 30.44 5.32 30.6C5.34667 30.9467 5.53333 31.1333 5.88 31.16H15.32C15.6667 31.1333 15.8533 30.9467 15.88 30.6C15.88 30.44 15.8267 30.3067 15.72 30.2C15.6133 30.0667 15.48 30 15.32 30ZM14.72 32.36H6.48C6.32 32.36 6.17333 32.4133 6.04 32.52C5.93333 32.6267 5.88 32.7733 5.88 32.96C5.88 33.12 5.93333 33.2533 6.04 33.36C6.17333 33.4667 6.32 33.52 6.48 33.52H7.72C7.88 34.2133 8.21333 34.7733 8.72 35.2C9.25333 35.6267 9.88 35.84 10.6 35.84C11.32 35.84 11.9333 35.6267 12.44 35.2C12.9733 34.7733 13.32 34.2133 13.48 33.52H14.72C14.88 33.52 15.0133 33.4667 15.12 33.36C15.2533 33.2533 15.32 33.12 15.32 32.96C15.32 32.7733 15.2533 32.6267 15.12 32.52C15.0133 32.4133 14.88 32.36 14.72 32.36ZM10.6 34.72C10.2267 34.72 9.89333 34.6 9.6 34.36C9.30667 34.1467 9.09333 33.8667 8.96 33.52H12.24C12.1067 33.8667 11.8933 34.1467 11.6 34.36C11.3067 34.6 10.9733 34.72 10.6 34.72Z" transform="translate(25 15)" fill="#405CD0"/>
</svg>
