<svg width="70" height="70" viewBox="0 0 70 70" fill="none" xmlns="http://www.w3.org/2000/svg">
<circle cx="35" cy="35" r="35" fill="#ECF6FF"/>
<path d="M23.52 18.24C23.1733 18.2667 22.9867 18.4667 22.96 18.84V34.12C22.96 34.28 22.8933 34.4133 22.76 34.52C22.6533 34.6533 22.52 34.72 22.36 34.72H1.76C1.6 34.72 1.45333 34.6533 1.32 34.52C1.21333 34.4133 1.16 34.28 1.16 34.12V12.92H7.04C7.54667 12.92 7.97333 12.76 8.32 12.44C8.66667 12.0933 8.84 11.6667 8.84 11.16V5.28H22.36C22.52 5.28 22.6533 5.34667 22.76 5.48C22.8933 5.58667 22.96 5.72 22.96 5.88V7.04C22.96 7.2 23.0133 7.34667 23.12 7.48C23.2267 7.58667 23.36 7.64 23.52 7.64C23.68 7.64 23.8133 7.58667 23.92 7.48C24.0533 7.34667 24.12 7.2 24.12 7.04V5.88C24.12 5.37333 23.9467 4.96 23.6 4.64C23.28 4.29333 22.8667 4.12 22.36 4.12H8.84C8.41333 4.12 7.97333 4.21333 7.52 4.4C7.06667 4.58667 6.69333 4.82667 6.4 5.12L1 10.52C0.706667 10.8133 0.466667 11.1867 0.28 11.64C0.0933333 12.0933 0 12.52 0 12.92V34.12C0.0266667 34.6 0.2 35 0.52 35.32C0.866667 35.6667 1.28 35.8533 1.76 35.88H22.36C22.8667 35.8533 23.28 35.6667 23.6 35.32C23.9467 35 24.12 34.6 24.12 34.12V18.84C24.12 18.6533 24.0533 18.5067 23.92 18.4C23.8133 18.2933 23.68 18.24 23.52 18.24ZM1.84 11.36L7.24 5.96C7.34667 5.85333 7.48 5.74667 7.64 5.64V11.16C7.64 11.32 7.58667 11.4667 7.48 11.6C7.37333 11.7067 7.22667 11.76 7.04 11.76H1.52C1.62667 11.5733 1.73333 11.44 1.84 11.36ZM25.72 8.4C25.4533 8.16 25.1733 8.16 24.88 8.4L11.96 20.76C11.88 20.8133 11.8267 20.88 11.8 20.96L10.04 25.68C9.96 25.92 10.0133 26.1333 10.2 26.32C10.3067 26.4 10.44 26.4533 10.6 26.48C10.68 26.48 10.76 26.4533 10.84 26.4L15.56 24.04C15.6133 24.04 15.6667 24.0133 15.72 23.96L28.08 11.6C28.2933 11.3067 28.2933 11.0267 28.08 10.76L25.72 8.4ZM14.96 23.04L11.68 24.68L12.84 21.52L25.28 9.64L26.8 11.16L14.96 23.04ZM28.84 4.72H28.6L26.24 7.04L29.4 10.24L31.76 7.88V7.64C31.7067 6.49333 31.3467 5.72 30.68 5.32C30.0133 4.89333 29.4 4.69333 28.84 4.72ZM29.4 8.56L27.88 7.04L29.04 5.88C29.3067 5.90667 29.6133 6.02667 29.96 6.24C30.3067 6.45333 30.52 6.84 30.6 7.4L29.4 8.56Z" transform="translate(20 15)" fill="#405CD0"/>
</svg>
