<svg width="70" height="70" viewBox="0 0 70 70" fill="none" xmlns="http://www.w3.org/2000/svg">
<circle cx="35" cy="35" r="35" fill="#ECF6FF"/>
<path d="M14.72 4.12C12.0533 4.12 9.66667 4.45333 7.56 5.12C5.45333 5.78667 4.33333 6.74667 4.2 8C4.14667 8.08 4.12 8.16 4.12 8.24V24.92C4.22667 26.12 5.26667 27.0667 7.24 27.76C9.21333 28.4533 11.5067 28.8267 14.12 28.88V31.28C13.6133 31.4133 13.1867 31.6933 12.84 32.12C12.52 32.52 12.36 33 12.36 33.56C12.3867 34.2267 12.6133 34.7733 13.04 35.2C13.4933 35.6267 14.0533 35.84 14.72 35.84C15.3867 35.84 15.9333 35.6267 16.36 35.2C16.8133 34.7733 17.0533 34.2267 17.08 33.56C17.08 33 16.9067 32.52 16.56 32.12C16.24 31.6933 15.8267 31.4133 15.32 31.28V28.92C17.9333 28.8667 20.2267 28.52 22.2 27.88C24.1733 27.24 25.2133 26.3067 25.32 25.08V8.24C25.32 8.13333 25.2933 8.04 25.24 7.96C25.0533 6.70667 23.9067 5.76 21.8 5.12C19.72 4.45333 17.36 4.12 14.72 4.12ZM14.72 5.28C17.6 5.33333 19.8667 5.65333 21.52 6.24C23.2 6.82667 24.0533 7.42667 24.08 8.04C24.0533 8.65333 23.2133 9.24 21.56 9.8C19.9333 10.36 17.6533 10.6667 14.72 10.72C11.7867 10.6667 9.49333 10.36 7.84 9.8C6.21333 9.21333 5.4 8.61333 5.4 8C5.4 7.38667 6.21333 6.8 7.84 6.24C9.49333 5.65333 11.7867 5.33333 14.72 5.28ZM15.88 33.56C15.88 33.88 15.76 34.1467 15.52 34.36C15.3067 34.6 15.04 34.72 14.72 34.72C14.4 34.72 14.12 34.6 13.88 34.36C13.6667 34.1467 13.56 33.88 13.56 33.56C13.56 33.2133 13.6667 32.9333 13.88 32.72C14.12 32.48 14.4 32.36 14.72 32.36C15.04 32.36 15.3067 32.48 15.52 32.72C15.76 32.9333 15.88 33.2133 15.88 33.56ZM24.12 25.08C24.0933 25.6667 23.2533 26.24 21.6 26.8C19.9733 27.36 17.68 27.6667 14.72 27.72C11.8133 27.6667 9.52 27.3467 7.84 26.76C6.18667 26.1467 5.34667 25.5333 5.32 24.92V21.4C6.28 22.0933 7.61333 22.6133 9.32 22.96C11.0267 23.3067 12.8267 23.48 14.72 23.48C16.6133 23.48 18.4133 23.3067 20.12 22.96C21.8267 22.6133 23.16 22.0933 24.12 21.4V25.08ZM24.12 19.32C24.0933 19.4 24.08 19.48 24.08 19.56C24.0533 20.1733 23.2133 20.7733 21.56 21.36C19.9333 21.9467 17.6533 22.2667 14.72 22.32C11.7867 22.2667 9.49333 21.9467 7.84 21.36C6.21333 20.7733 5.38667 20.1733 5.36 19.56C5.36 19.48 5.34667 19.4 5.32 19.32V15.52C6.28 16.2133 7.61333 16.7333 9.32 17.08C11.0267 17.4267 12.8267 17.6 14.72 17.6C16.6133 17.6 18.4133 17.4267 20.12 17.08C21.8267 16.7067 23.16 16.1733 24.12 15.48V19.32ZM24.12 13.44C24.0933 13.52 24.08 13.6 24.08 13.68C24.0533 14.2933 23.2133 14.8933 21.56 15.48C19.9333 16.04 17.6533 16.3467 14.72 16.4C11.7867 16.3467 9.49333 16.04 7.84 15.48C6.21333 14.8933 5.38667 14.2933 5.36 13.68C5.36 13.6 5.34667 13.52 5.32 13.44V9.84C6.28 10.5333 7.61333 11.0533 9.32 11.4C11.0267 11.7467 12.84 11.92 14.76 11.92C16.68 11.92 18.48 11.7467 20.16 11.4C21.8667 11.0533 23.1867 10.5467 24.12 9.88V13.44ZM6.48 32.96H4.72C4.56 32.96 4.41333 33.0133 4.28 33.12C4.17333 33.2267 4.12 33.3733 4.12 33.56C4.12 33.72 4.17333 33.8533 4.28 33.96C4.41333 34.0667 4.56 34.12 4.72 34.12H6.48C6.64 34.12 6.77333 34.0667 6.88 33.96C7.01333 33.8533 7.08 33.72 7.08 33.56C7.08 33.3733 7.01333 33.2267 6.88 33.12C6.77333 33.0133 6.64 32.96 6.48 32.96ZM2.36 32.96H0.6C0.44 32.96 0.293333 33.0133 0.16 33.12C0.0533333 33.2267 0 33.3733 0 33.56C0 33.72 0.0533333 33.8533 0.16 33.96C0.293333 34.0667 0.44 34.12 0.6 34.12H2.36C2.52 34.12 2.65333 34.0667 2.76 33.96C2.89333 33.8533 2.96 33.72 2.96 33.56C2.96 33.3733 2.89333 33.2267 2.76 33.12C2.65333 33.0133 2.52 32.96 2.36 32.96ZM10.6 32.96H8.84C8.68 32.96 8.53333 33.0133 8.4 33.12C8.29333 33.2267 8.24 33.3733 8.24 33.56C8.24 33.72 8.29333 33.8533 8.4 33.96C8.53333 34.0667 8.68 34.12 8.84 34.12H10.6C10.76 34.12 10.8933 34.0667 11 33.96C11.1333 33.8533 11.2 33.72 11.2 33.56C11.2 33.3733 11.1333 33.2267 11 33.12C10.8933 33.0133 10.76 32.96 10.6 32.96ZM28.84 32.96H27.08C26.92 32.96 26.7733 33.0133 26.64 33.12C26.5333 33.2267 26.48 33.3733 26.48 33.56C26.48 33.72 26.5333 33.8533 26.64 33.96C26.7733 34.0667 26.92 34.12 27.08 34.12H28.84C29 34.12 29.1333 34.0667 29.24 33.96C29.3733 33.8533 29.44 33.72 29.44 33.56C29.44 33.3733 29.3733 33.2267 29.24 33.12C29.1333 33.0133 29 32.96 28.84 32.96ZM24.72 32.96H22.96C22.8 32.96 22.6533 33.0133 22.52 33.12C22.4133 33.2267 22.36 33.3733 22.36 33.56C22.36 33.72 22.4133 33.8533 22.52 33.96C22.6533 34.0667 22.8 34.12 22.96 34.12H24.72C24.88 34.12 25.0133 34.0667 25.12 33.96C25.2533 33.8533 25.32 33.72 25.32 33.56C25.32 33.3733 25.2533 33.2267 25.12 33.12C25.0133 33.0133 24.88 32.96 24.72 32.96ZM20.6 32.96H18.84C18.68 32.96 18.5333 33.0133 18.4 33.12C18.2933 33.2267 18.24 33.3733 18.24 33.56C18.24 33.72 18.2933 33.8533 18.4 33.96C18.5333 34.0667 18.68 34.12 18.84 34.12H20.6C20.76 34.12 20.8933 34.0667 21 33.96C21.1333 33.8533 21.2 33.72 21.2 33.56C21.2 33.3733 21.1333 33.2267 21 33.12C20.8933 33.0133 20.76 32.96 20.6 32.96Z" transform="translate(20 15)" fill="#405CD0"/>
</svg>
